<svg xmlns="http://www.w3.org/2000/svg" viewBox="0 0 39.38242 28" width="39.382" height="28" x="20" y="12"><defs><style>.accls-1{fill:#da251d}</style></defs><title>Artboard 121</title><g id="acLayer_6"><path class="accls-1" d="M12.856 0H26.53v3.335H12.856zM37.718 8.524h-2.854L33.14 3.112A3.01 3.01 0 0 0 30.297.834H28.4V2.5h1.897a1.357 1.357 0 0 1 1.217.974l1.64 5.05H6.23l1.646-5.05A1.354 1.354 0 0 1 9.093 2.5h1.893V.834H9.093a3.005 3.005 0 0 0-2.845 2.278L4.52 8.524H1.67a1.67 1.67 0 1 0 0 3.34h.478a1.184 1.184 0 0 0 .026.14L5.137 25.71A2.99 2.99 0 0 0 7.972 28H31.24a3.027 3.027 0 0 0 2.854-2.273L37.21 12.01l.03-.146h.48a1.67 1.67 0 0 0 0-3.34zm-24.65 15.64a1.252 1.252 0 1 1-2.504 0v-11.68a1.252 1.252 0 0 1 2.504 0zm7.88 0a1.252 1.252 0 1 1-2.505 0v-11.68a1.252 1.252 0 0 1 2.504 0zm7.873 0a1.25 1.25 0 1 1-2.498 0v-11.68a1.25 1.25 0 0 1 2.5 0z"/></g></svg>