<svg xmlns="http://www.w3.org/2000/svg" viewBox="0 0 28.33293 15" width="28.333" height="15" x="187" y="150"><defs><style>.ajcls-1{fill:#1f1a17}.ajcls-2{fill:#888}</style></defs><title>Artboard 134</title><g id="ajLayer_3"><path id="aj_Path_" class="ajcls-1" d="M7.62 4.614L0 4.904 6.195 6.99l.207-1.316 1.22-1.06z"/><path id="aj_Path_2" class="ajcls-1" d="M5.63 7.64l-5.07.83 3.547 2.124a4.205 4.205 0 0 1 .38-1.684 4.21 4.21 0 0 1 1.145-1.27z"/><path class="ajcls-2" d="M25.265 7.05a4.012 4.012 0 0 0-1.822-.022L21.513.845a.26.26 0 0 0-.02-.037.412.412 0 0 0-.04-.068.26.26 0 0 0-.047-.052.27.27 0 0 0-.054-.043.37.37 0 0 0-.07-.034.3.3 0 0 0-.04-.017L18.893.01a.378.378 0 1 0-.18.734l2.144.53.518 1.73.403 1.278.946 2.974a4.03 4.03 0 1 0 2.542-.207zm1.02 4.407a2.048 2.048 0 1 1-1.496-2.48 2.048 2.048 0 0 1 1.495 2.48zM21.677 3.965a10.027 10.027 0 0 0-1.86-.24 6.315 6.315 0 0 0-.85.038c-1.127.135-1.968.785-3.46 2.015a2.632 2.632 0 0 1-3.29.206l-.012-.008a5.46 5.46 0 0 0-2.715-.883 3.37 3.37 0 0 0-.5.04.37.37 0 0 0-.294-.15h-.814l-.307.073a.37.37 0 0 0-.165.303v.555a4.973 4.973 0 0 0-.535.585.372.372 0 0 0-.13.284.366.366 0 0 0 .386.377.327.327 0 0 0 .062-.003c.002-.002.095-.015.253-.028a4.035 4.035 0 1 0 5.285 3.834c0-.03-.004-.057-.006-.085l.454.82c.444.765.882 2.03 1.68 2.03h2.297c.8 0 1.238-1.265 1.682-2.03l3.324-6.543zm-12.982 9.05a2.05 2.05 0 1 1 2.05-2.05 2.05 2.05 0 0 1-2.05 2.05z"/></g></svg>