<svg xmlns="http://www.w3.org/2000/svg" viewBox="0 0 15.00198 15" width="15.002" height="15" x="428" y="365"><defs><style>.aucls-1{fill:#da251d}</style></defs><title>Icons - All.outline.4-Final</title><path id="auForma_1" class="aucls-1" d="M9.595 14.635a1.257 1.257 0 0 1-1.772 0L.923 8.18a2.852 2.852 0 0 1-.878-1.57c-.09-1.426-.026-4.153.017-5.6a1.026 1.026 0 0 1 .99-.98C2.9-.015 6.826-.06 7.19.303l7.6 6.857c.486.488.044 1.72-.448 2.208zM3.548 2.125a1.057 1.057 0 1 0-.003 1.495l.003-.003a1.06 1.06 0 0 0-.005-1.492z"/></svg>